<?xml version="1.0" standalone="no"?>
<!DOCTYPE svg PUBLIC "-//W3C//DTD SVG 20010904//EN"
 "http://www.w3.org/TR/2001/REC-SVG-20010904/DTD/svg10.dtd">
<svg version="1.0" xmlns="http://www.w3.org/2000/svg"
 width="256.000000pt" height="256.000000pt" viewBox="0 0 256.000000 256.000000"
 preserveAspectRatio="xMidYMid meet">
<metadata>
Created by potrace 1.14, written by Peter Selinger 2001-2017
</metadata>
<g transform="translate(0.000000,256.000000) scale(0.100000,-0.100000)"
fill="#000000" stroke="none">
<path d="M0 2258 c0 -166 3 -298 7 -295 3 4 7 17 8 30 2 16 8 21 23 20 13 -2
31 10 47 29 25 30 26 33 9 39 -20 8 -13 11 31 13 10 1 21 10 25 21 3 11 11 20
18 21 27 2 31 5 34 25 2 12 12 27 22 33 11 6 29 20 40 32 12 11 33 29 49 39
15 9 27 23 27 29 0 16 39 48 50 41 6 -4 10 4 10 18 0 17 9 27 35 37 19 8 35
19 35 24 0 6 4 6 8 -1 6 -9 17 -3 41 21 22 23 39 32 50 28 14 -5 14 -4 2 11
-16 20 -6 36 11 19 7 -7 20 -12 31 -12 14 0 17 5 12 20 -8 25 4 48 15 30 6
-10 15 -10 44 0 19 6 38 16 41 21 4 5 -137 9 -359 9 l-366 0 0 -302z"/>
<path d="M1644 2551 c3 -4 37 -18 76 -30 38 -12 70 -26 70 -30 0 -4 18 -14 41
-21 23 -8 44 -21 47 -29 8 -22 24 -31 45 -25 11 4 17 0 17 -11 0 -9 20 -28 45
-43 25 -15 43 -33 40 -40 -3 -7 3 -16 13 -19 31 -12 92 -55 92 -67 1 -6 12
-20 27 -31 14 -11 33 -28 41 -37 9 -10 20 -18 25 -18 15 0 69 -63 79 -92 5
-15 19 -29 34 -32 13 -4 24 -12 24 -19 0 -8 13 -28 30 -47 16 -18 39 -47 51
-65 12 -17 31 -36 42 -41 11 -5 25 -18 31 -29 13 -23 32 -45 40 -45 3 0 6 176
6 390 l0 390 -461 0 c-253 0 -458 -4 -455 -9z"/>
<path d="M1115 1899 c-143 -22 -226 -39 -242 -51 -7 -5 -14 -5 -18 2 -4 7 -11
6 -19 -3 -18 -17 -24 -40 -32 -112 -3 -33 -7 -62 -9 -65 -11 -17 21 -28 115
-39 121 -15 138 -23 110 -54 -11 -11 -21 -26 -21 -31 -2 -10 -3 -29 -8 -77 0
-8 -7 -24 -15 -35 -14 -18 -15 -18 -25 9 -9 24 -16 28 -43 25 -33 -3 -33 -4
-34 -58 -2 -50 -33 -142 -48 -141 -3 1 -10 1 -15 1 -5 0 -14 -23 -20 -50 -14
-65 -15 -243 -1 -235 6 3 10 1 10 -4 0 -6 7 -11 15 -11 8 0 28 -13 45 -30 23
-22 29 -37 27 -62 -2 -30 -6 -33 -37 -36 -25 -3 -30 -6 -19 -13 10 -6 5 -9
-19 -9 l-34 0 4 -139 c2 -77 6 -142 9 -145 3 -3 84 -10 180 -16 247 -14 406
-27 544 -45 227 -29 273 -30 295 -10 19 17 28 18 148 6 70 -7 143 -17 164 -22
20 -5 80 -12 135 -15 54 -3 141 -9 193 -14 52 -4 98 -6 103 -3 4 2 7 42 7 88
0 46 -3 86 -7 88 -25 15 -564 23 -674 11 l-56 -6 -7 32 c-3 18 -6 96 -6 174 0
89 -4 146 -11 153 -8 8 -8 13 0 17 17 11 15 648 -1 665 -10 11 -10 14 0 18 9
3 12 40 12 134 l0 129 -287 -1 c-223 -1 -315 -6 -408 -20z m415 -394 c7 -9 10
-19 6 -23 -4 -4 -106 -7 -226 -7 -215 0 -219 0 -243 -24 l-25 -23 -17 32 c-30
58 -22 60 250 60 205 0 245 -2 255 -15z m-600 -74 c0 -14 -18 -23 -30 -16 -6
4 -8 11 -5 16 8 12 35 12 35 0z m600 -257 l0 -27 -137 6 c-76 3 -189 3 -251
-1 l-112 -7 0 28 0 27 250 0 250 0 0 -26z"/>
<path d="M2400 301 c0 -19 35 -54 63 -64 25 -9 22 -4 -23 41 -29 28 -40 35
-40 23z"/>
<path d="M2431 303 c18 -23 43 -42 48 -37 8 8 -30 54 -45 54 -14 0 -15 -2 -3
-17z"/>
<path d="M2350 269 c0 -5 5 -7 10 -4 6 3 10 8 10 11 0 2 -4 4 -10 4 -5 0 -10
-5 -10 -11z"/>
<path d="M2354 226 c-38 -38 -44 -66 -15 -66 21 0 81 63 81 85 0 25 -31 16
-66 -19z"/>
<path d="M2300 225 c-19 -14 -29 -25 -22 -25 7 0 25 11 40 25 34 31 27 31 -18
0z"/>
<path d="M2410 185 c-19 -19 -29 -35 -24 -35 6 0 25 16 43 35 17 19 28 35 23
35 -4 0 -23 -16 -42 -35z"/>
<path d="M2246 185 c-3 -9 -6 -22 -5 -28 0 -7 5 -1 10 12 5 13 8 26 5 28 -2 2
-6 -3 -10 -12z"/>
<path d="M2259 160 c-23 -29 -27 -30 -129 -36 -58 -3 -136 -7 -175 -10 -38 -3
-88 -5 -110 -4 -22 0 -63 1 -91 2 -50 1 -114 -17 -114 -32 0 -4 -39 -15 -87
-25 -49 -9 -96 -21 -105 -26 -10 -5 -34 -9 -53 -9 -19 0 -35 -4 -35 -10 0 -7
207 -10 600 -10 l600 0 0 61 0 61 -57 -4 c-32 -2 -67 -8 -78 -12 -16 -6 -17
-6 -5 3 12 9 9 11 -17 11 -17 0 -34 6 -36 13 -4 7 -6 6 -6 -5 -1 -9 2 -18 7
-21 4 -2 2 -3 -4 -1 -6 1 -17 -3 -24 -9 -10 -10 -10 -8 -2 9 9 18 6 26 -22 53
l-33 32 -24 -31z m47 -22 l29 -33 -32 29 c-31 28 -38 36 -30 36 2 0 16 -15 33
-32z m85 -51 c-10 -9 -11 -8 -5 6 3 10 9 15 12 12 3 -3 0 -11 -7 -18z"/>
</g>
</svg>
